<?xml version="1.0" ?><svg height="200" id="Color" viewBox="0 0 200 200" width="200" xmlns="http://www.w3.org/2000/svg"><defs><style>.cls-1{fill:#ffb612;}.cls-2{fill:#593a25;}</style></defs><title/><path class="cls-1" d="M100,133.46A5.49,5.49,0,0,1,94.51,128V92.4a5.49,5.49,0,1,1,11,0V128A5.49,5.49,0,0,1,100,133.46Z"/><path class="cls-1" d="M99.8,150.57a5.46,5.46,0,0,1-3.55-1.31L72.48,129.12a5.49,5.49,0,0,1,7.09-8.38l20.25,17.15,20.63-17.19a5.49,5.49,0,0,1,7,8.44L103.32,149.3A5.54,5.54,0,0,1,99.8,150.57Z"/><path class="cls-2" d="M143.93,164.06H123.44a5.49,5.49,0,1,1,0-11H144a32.56,32.56,0,0,0,2.16-65A5.47,5.47,0,0,1,141,83.24a41.35,41.35,0,0,0-82.08,0,5.47,5.47,0,0,1-5.07,4.81,32.56,32.56,0,0,0,2.16,65H76.56a5.49,5.49,0,1,1,0,11H56.05A43.54,43.54,0,0,1,48.77,77.6a52.33,52.33,0,0,1,102.46,0,43.54,43.54,0,0,1-7.3,86.46Z"/></svg>