<?xml version="1.0" ?><svg height="200" id="Color" viewBox="0 0 200 200" width="200" xmlns="http://www.w3.org/2000/svg"><defs><style>.cls-1{fill:#593a25;}.cls-2{fill:#ffb612;}</style></defs><title/><path class="cls-1" d="M123.66,181.25H76.14a30.6,30.6,0,0,1-30.56-30.57V53.12a5.29,5.29,0,0,1,10.58,0v97.56a20,20,0,0,0,20,20h47.52a20,20,0,0,0,20-20V53.12a5.3,5.3,0,0,1,10.59,0v97.56a30.6,30.6,0,0,1-30.57,30.57Z"/><path class="cls-1" d="M173,53.11H27a5.3,5.3,0,0,1,0-10.59H173a5.3,5.3,0,0,1,0,10.59ZM83.43,138.18a5.29,5.29,0,0,1-5.3-5.29V93.16a5.3,5.3,0,0,1,10.59,0v39.71A5.3,5.3,0,0,1,83.43,138.18Zm35.41,0a5.29,5.29,0,0,1-5.3-5.29V93.16a5.3,5.3,0,0,1,10.59,0v39.71A5.31,5.31,0,0,1,118.84,138.18Z"/><path class="cls-2" d="M111.88,29.34H88.13a5.3,5.3,0,0,1,0-10.59H111.9a5.3,5.3,0,1,1,0,10.59Z"/></svg>