<?xml version="1.0" ?><svg height="200" id="Color" viewBox="0 0 200 200" width="200" xmlns="http://www.w3.org/2000/svg"><defs><style>.cls-1{fill:#593a25;}.cls-2{fill:#ffb612;}</style></defs><title/><path class="cls-1" d="M160.4,158.2H39.58a15.12,15.12,0,0,1-11.89-5.93,16.34,16.34,0,0,1-3.25-13.13,5.89,5.89,0,0,1,.51-1.48l28-54.95s0,0,0,0A27.67,27.67,0,0,0,56,70.12V59.73A28.11,28.11,0,0,1,57.59,50s0,0,0,0A52,52,0,0,1,68.76,31.82a42,42,0,0,1,12.73-9.16,45.89,45.89,0,0,1,37.07,0,41.79,41.79,0,0,1,12.74,9.16A52.17,52.17,0,0,1,142.45,50s0,0,0,0a28.7,28.7,0,0,1,1.58,9.69V70.12a29,29,0,0,0,3.07,12.95l27.93,54.59a6,6,0,0,1,.51,1.48,16.32,16.32,0,0,1-3.23,13.09,15,15,0,0,1-11.83,6ZM35.11,141.78a5.53,5.53,0,0,0,1.15,3.71l0,0a4.28,4.28,0,0,0,3.3,1.76H160.34a4.27,4.27,0,0,0,3.28-1.68s.06-.08.08-.12a5.28,5.28,0,0,0,1.15-3.69L137.35,88s0,0,0,0A40.09,40.09,0,0,1,133.1,70.1V59.63a18,18,0,0,0-1-6c-2-5.64-10.25-23.94-32.13-23.94S69.89,48,67.88,53.65a17.52,17.52,0,0,0-1,6V70.12A38.53,38.53,0,0,1,62.63,87.7Z"/><path class="cls-2" d="M120,181.25H80a5.47,5.47,0,0,1,0-10.94h40a5.47,5.47,0,0,1,0,10.94Z"/></svg>