<?xml version="1.0" ?><svg height="200" id="Color" viewBox="0 0 200 200" width="200" xmlns="http://www.w3.org/2000/svg"><defs><style>.cls-1{fill:#593a25;}.cls-2{fill:#ffb612;}</style></defs><title/><path class="cls-1" d="M100,154.17a102.73,102.73,0,0,1-84.18-43.69,18.26,18.26,0,0,1,0-21,103.73,103.73,0,0,1,36-31.76A102.62,102.62,0,0,1,100,45.83a102.73,102.73,0,0,1,84.18,43.69,18.26,18.26,0,0,1,0,21,103.73,103.73,0,0,1-36,31.76,102.06,102.06,0,0,1-23,8.82A103.49,103.49,0,0,1,100,154.17Zm0-97.42A92.13,92.13,0,0,0,24.82,95.81a7.25,7.25,0,0,0,0,8.32,91.88,91.88,0,0,0,150.36,0,7.25,7.25,0,0,0,0-8.32A92.13,92.13,0,0,0,100,56.75Z"/><path class="cls-2" d="M100,126.63A26.66,26.66,0,1,1,126.66,100,26.69,26.69,0,0,1,100,126.63Zm0-42.34A15.68,15.68,0,1,0,115.68,100,15.69,15.69,0,0,0,100,84.29Z"/></svg>