<?xml version="1.0" ?><svg height="200" id="Color" viewBox="0 0 200 200" width="200" xmlns="http://www.w3.org/2000/svg"><defs><style>.cls-1{fill:#ffb612;}.cls-2{fill:#593a25;}</style></defs><title/><path class="cls-1" d="M120.46,176.54h-11V148.79a9.45,9.45,0,0,0-18.9,0v27.75h-11V148.79a20.45,20.45,0,1,1,40.9,0v27.75Z"/><path class="cls-2" d="M143.82,187.5H56.2c-7.58,0-15-3.67-20.31-10.08a35.59,35.59,0,0,1-8-22.83v-78c0-11.19,4.85-21.52,13-27.63L81.49,17.79A25.88,25.88,0,0,1,97.31,12.5a27.46,27.46,0,0,1,14.13,4.16l.23.16L158.1,49.16c8.67,5.66,14,16.46,14,28.22v77.23a35.61,35.61,0,0,1-8,22.83C158.8,183.83,151.4,187.5,143.82,187.5Zm-46.51-164a15,15,0,0,0-9.08,3l0,0L47.45,57.68c-5.31,4-8.59,11.21-8.59,18.86v78.07c0,11.87,8,21.91,17.34,21.91h87.62c9.39,0,17.34-10,17.34-21.91V77.36c0-8-3.57-15.47-9.12-19.06l-.16-.1L105.5,25.9A16.7,16.7,0,0,0,97.31,23.48Z"/></svg>