<?xml version="1.0" ?><svg height="200" id="Color" viewBox="0 0 200 200" width="200" xmlns="http://www.w3.org/2000/svg"><defs><style>.cls-1{fill:#593a25;}.cls-2{fill:#ffb612;}</style></defs><title/><path class="cls-1" d="M100,64.45a26,26,0,1,1,26-26A26,26,0,0,1,100,64.45Zm0-41a15,15,0,1,0,15,15A15,15,0,0,0,100,23.44Z"/><path class="cls-2" d="M100,123.44a20.88,20.88,0,1,1,20.88-20.88A20.91,20.91,0,0,1,100,123.44Zm0-30.76a9.88,9.88,0,1,0,9.88,9.88A9.89,9.89,0,0,0,100,92.68Z"/><path class="cls-1" d="M100,187.56a20.88,20.88,0,1,1,20.88-20.88A20.91,20.91,0,0,1,100,187.56Zm0-30.78a9.89,9.89,0,1,0,9.88,9.9,9.89,9.89,0,0,0-9.88-9.9Z"/></svg>