<?xml version="1.0" ?><svg height="200" id="Color" viewBox="0 0 200 200" width="200" xmlns="http://www.w3.org/2000/svg"><defs><style>.cls-1{fill:#593a25;}.cls-2{fill:#ffb612;}</style></defs><title/><path class="cls-1" d="M127.84,181.2a5.64,5.64,0,0,1-3.32-1.11,41.19,41.19,0,0,0-49,0,5.48,5.48,0,0,1-5.2.78,86.61,86.61,0,0,1-25.51-14.79,5.49,5.49,0,0,1-1.91-4.88A40.33,40.33,0,0,0,37.65,136a40.46,40.46,0,0,0-19.28-17.19,5.41,5.41,0,0,1-3.28-4.12,84.51,84.51,0,0,1,0-29.42,5.49,5.49,0,0,1,3.28-4.12A40.33,40.33,0,0,0,37.63,64,40.51,40.51,0,0,0,42.9,38.82a5.47,5.47,0,0,1,1.91-4.88A86.24,86.24,0,0,1,70.32,19.13a5.48,5.48,0,0,1,5.2.78A40.4,40.4,0,0,0,100,28a40.4,40.4,0,0,0,24.47-8.07,5.48,5.48,0,0,1,5.2-.78,86,86,0,0,1,25.51,14.81,5.47,5.47,0,0,1,1.91,4.88A40.48,40.48,0,0,0,162.35,64a40.37,40.37,0,0,0,19.28,17.19,5.41,5.41,0,0,1,3.28,4.12,84.51,84.51,0,0,1,0,29.42,5.45,5.45,0,0,1-3.28,4.12,41.2,41.2,0,0,0-24.55,42.36,5.47,5.47,0,0,1-1.91,4.88,86.17,86.17,0,0,1-25.51,14.79,5.12,5.12,0,0,1-1.82.33ZM54.07,159.46a75,75,0,0,0,17.4,10.12,52.28,52.28,0,0,1,57.15,0A75.44,75.44,0,0,0,146,159.46,52.3,52.3,0,0,1,174.66,110a72.06,72.06,0,0,0,0-20A52.3,52.3,0,0,1,146,40.54,74.94,74.94,0,0,0,128.6,30.42a51.78,51.78,0,0,1-28.55,8.5,51.63,51.63,0,0,1-28.56-8.5A75.5,75.5,0,0,0,54.07,40.54a51.84,51.84,0,0,1-6.93,28.9A51.8,51.8,0,0,1,25.46,90a72.83,72.83,0,0,0-.68,10,76.11,76.11,0,0,0,.68,10,51.6,51.6,0,0,1,21.7,20.53,51.68,51.68,0,0,1,6.91,28.92Z"/><path class="cls-2" d="M100.05,125.05A25.06,25.06,0,1,1,125.11,100,25.09,25.09,0,0,1,100.05,125.05Zm0-39.2A14.14,14.14,0,1,0,114.19,100,14.16,14.16,0,0,0,100.05,85.85Z"/></svg>